<svg xmlns="http://www.w3.org/2000/svg" width="48" height="48" viewBox="0 0 48 48">
  <defs>
    <linearGradient id="bg" x1="0" y1="0" x2="48" y2="48" gradientUnits="userSpaceOnUse">
      <stop offset="0%" stop-color="#b67724"/>
      <stop offset="100%" stop-color="#ca8a2e"/>
    </linearGradient>
  </defs>
  <rect width="48" height="48" rx="12" fill="url(#bg)"/>
  <g transform="translate(12,10)" fill="none" stroke="#ffffff" stroke-width="1.8" stroke-linecap="round" stroke-linejoin="round">
    <path d="M12 2.253v18m0-18C10.832 1.477 9.246 1 7.5 1S4.168 1.477 3 2.253v18C4.168 19.477 5.754 19 7.5 19s3.332.477 4.5 1.253m0-18C13.168 1.477 14.754 1 16.5 1c1.747 0 3.332.477 4.5 1.253v18C19.832 19.477 18.247 19 16.5 19c-1.746 0-3.332.477-4.5 1.253"/>
  </g>
</svg>
