<svg xmlns="http://www.w3.org/2000/svg" width="1200" height="630" viewBox="0 0 1200 630">
  <defs>
    <linearGradient id="bg" x1="0" y1="0" x2="1200" y2="630" gradientUnits="userSpaceOnUse">
      <stop offset="0%" stop-color="#fcfcfc"/>
      <stop offset="100%" stop-color="#f7f4f1"/>
    </linearGradient>
  </defs>
  <rect width="1200" height="630" fill="url(#bg)"/>
  <rect x="0" y="0" width="1200" height="6" fill="#ca8a2e"/>
  <g transform="translate(80, 120)">
    <circle cx="36" cy="36" r="36" fill="#ca8a2e" opacity="0.1"/>
    <svg x="18" y="18" width="36" height="36" viewBox="0 0 24 24" fill="none" stroke="#ca8a2e" stroke-width="1.5" stroke-linecap="round" stroke-linejoin="round">
      <path d="M12 6.253v13m0-13C10.832 5.477 9.246 5 7.5 5S4.168 5.477 3 6.253v13C4.168 18.477 5.754 18 7.5 18s3.332.477 4.5 1.253m0-13C13.168 5.477 14.754 5 16.5 5c1.747 0 3.332.477 4.5 1.253v13C19.832 18.477 18.247 18 16.5 18c-1.746 0-3.332.477-4.5 1.253"/>
    </svg>
  </g>
  <text x="160" y="150" font-family="Georgia, serif" font-size="40" font-weight="bold" fill="#3b2a1f">
    Graça &amp; Verdade
  </text>
  <text x="80" y="280" font-family="Georgia, serif" font-size="72" font-weight="bold" fill="#3b2a1f">
    Blog Bíblico
  </text>
  <text x="80" y="380" font-family="Georgia, serif" font-size="36" fill="#6a5b4d">
    Artigos sobre teologia, vida cristã e estudos das Escrituras.
  </text>
  <text x="80" y="460" font-family="Georgia, serif" font-size="24" fill="#8a7e73" font-style="italic">
    &quot;E conhecereis a verdade, e a verdade vos libertará.&quot; — João 8:32
  </text>
  <text x="80" y="560" font-family="sans-serif" font-size="22" fill="#ca8a2e" font-weight="600">
    gracaeverdade.com.br
  </text>
</svg>
